<svg width="894" height="287" viewBox="0 0 894 287" fill="none" xmlns="http://www.w3.org/2000/svg">
<path opacity="0.7" d="M205 229.583V199.55C205 192.773 207.687 186.274 212.469 181.483C217.252 176.691 223.738 174 230.5 174C237.262 174 243.748 176.691 248.531 181.483C253.313 186.274 256 192.773 256 199.55V229.583L248.874 222.444L248.167 221.734L247.459 222.444L239.333 230.584L231.208 222.444L230.5 221.734L229.792 222.444L221.667 230.584L213.541 222.444L212.833 221.734L212.126 222.444L205 229.583ZM226.539 191.722C225.247 190.427 223.494 189.7 221.667 189.7C219.839 189.7 218.087 190.427 216.795 191.722C215.503 193.016 214.778 194.771 214.778 196.6C214.778 198.429 215.503 200.184 216.795 201.478C218.087 202.773 219.839 203.5 221.667 203.5C223.494 203.5 225.247 202.773 226.539 201.478C227.83 200.184 228.556 198.429 228.556 196.6C228.556 194.771 227.83 193.016 226.539 191.722ZM244.205 191.722C242.913 190.427 241.161 189.7 239.333 189.7C237.506 189.7 235.753 190.427 234.461 191.722C233.17 193.016 232.444 194.771 232.444 196.6C232.444 198.429 233.17 200.184 234.461 201.478C235.753 202.773 237.506 203.5 239.333 203.5C241.161 203.5 242.913 202.773 244.205 201.478C245.497 200.184 246.222 198.429 246.222 196.6C246.222 194.771 245.497 193.016 244.205 191.722Z" fill="#FAFAFA" stroke="#383582" stroke-width="2"/>
<path opacity="0.7" d="M642.565 120.082L649.97 90.9769C651.641 84.4093 655.847 78.7734 661.663 75.309C667.479 71.8447 674.429 70.8355 680.982 72.5028C687.536 74.17 693.158 78.3775 696.611 84.2C700.065 90.0226 701.067 96.9834 699.396 103.551L691.991 132.657L686.846 123.981L686.335 123.119L685.474 123.632L675.592 129.518L669.724 119.625L669.213 118.764L668.352 119.276L658.471 125.163L652.603 115.27L652.092 114.408L651.231 114.921L642.565 120.082ZM672.774 88.7006C671.841 87.1279 670.322 85.9908 668.551 85.5402C666.78 85.0896 664.902 85.3625 663.331 86.2983C661.76 87.234 660.624 88.7558 660.173 90.5287C659.722 92.3017 659.993 94.1811 660.925 95.7538C661.858 97.3266 663.377 98.4636 665.148 98.9142C666.92 99.3648 668.797 99.0919 670.368 98.1561C671.939 97.2204 673.075 95.6986 673.526 93.9257C673.977 92.1528 673.707 90.2733 672.774 88.7006ZM689.895 93.0563C688.962 91.4836 687.443 90.3466 685.672 89.896C683.901 89.4454 682.023 89.7183 680.452 90.654C678.881 91.5897 677.746 93.1116 677.295 94.8845C676.844 96.6574 677.114 98.5369 678.047 100.11C678.979 101.682 680.498 102.819 682.27 103.27C684.041 103.721 685.919 103.448 687.49 102.512C689.06 101.576 690.196 100.054 690.647 98.2814C691.098 96.5085 690.828 94.629 689.895 93.0563Z" fill="#FAFAFA" stroke="#383582" stroke-width="2"/>
<path d="M151.25 223.75C135.583 230.083 116.917 233.25 95.25 233.25C32.1667 233.25 6.83333 202.208 19.25 140.125C31 81.375 68.9583 52 133.125 52C152.708 52 169.625 54.9167 183.875 60.75L177.875 90.75C163.792 84.0833 147.792 80.75 129.875 80.75C86.9583 80.75 61.5417 100.542 53.625 140.125C45.0417 183.042 61 204.5 101.5 204.5C107.5 204.5 114.542 203.5 122.625 201.5L133 149.5H166.125L151.25 223.75ZM180.875 232L216.625 53.25H249.75L235 127H323.125L337.875 53.25H371L335.25 232H302.125L317.375 155.75H229.25L214 232H180.875ZM421.5 142.125C413.167 183.708 427.458 204.5 464.375 204.5C500.375 204.5 522.542 183.708 530.875 142.125C539.042 101.208 525.125 80.75 489.125 80.75C452.208 80.75 429.667 101.208 421.5 142.125ZM387 142.875C399.083 82.2917 435.042 52 494.875 52C553.792 52 577.208 82.2917 565.125 142.875C553.042 203.125 517.542 233.25 458.625 233.25C398.792 233.25 374.917 203.125 387 142.875ZM440.875 125.375H517.75L512 154.125H435.125L440.875 125.375ZM579.5 224.5L585.5 194.5C602.083 201.167 621.667 204.5 644.25 204.5C671.667 204.5 687.208 195.333 690.875 177C693.542 163.667 686.458 157 669.625 157H641.625C605.042 157 590.083 140.333 596.75 107C604.083 70.3333 633.792 52 685.875 52C705.875 52 724.25 54.9167 741 60.75L735 90.75C718.417 84.0833 700.125 80.75 680.125 80.75C650.125 80.75 633.375 89.5 629.875 107C627.208 120.333 633.125 127 647.625 127H675.625C714.542 127 730.667 143.667 724 177C716.5 214.5 688 233.25 638.5 233.25C615.917 233.25 596.25 230.333 579.5 224.5ZM893.75 53.25L888 82H836.75L806.75 232H773.625L803.625 82H752.375L758.125 53.25H893.75Z" fill="#383582"/>
</svg>
